<svg width="21" height="19" viewBox="0 0 21 19" fill="none" xmlns="http://www.w3.org/2000/svg">
<path d="M19.6875 4.75H16.9969C16.6687 3.38437 15.3562 2.375 13.7812 2.375C12.2063 2.375 10.8938 3.38437 10.5656 4.75H1.3125V5.9375H10.5656C10.8938 7.30312 12.2063 8.3125 13.7812 8.3125C15.3562 8.3125 16.6687 7.30312 16.9969 5.9375H19.6875V4.75ZM13.7812 7.125C12.6656 7.125 11.8125 6.35313 11.8125 5.34375C11.8125 4.33438 12.6656 3.5625 13.7812 3.5625C14.8969 3.5625 15.75 4.33438 15.75 5.34375C15.75 6.35313 14.8969 7.125 13.7812 7.125Z" fill="#7A7A7A"/>
<path d="M1.3125 14.25H4.00312C4.33125 15.6156 5.64375 16.625 7.21875 16.625C8.79375 16.625 10.1062 15.6156 10.4344 14.25H19.6875V13.0625H10.4344C10.1062 11.6969 8.79375 10.6875 7.21875 10.6875C5.64375 10.6875 4.33125 11.6969 4.00312 13.0625H1.3125V14.25ZM7.21875 11.875C8.33437 11.875 9.1875 12.6469 9.1875 13.6562C9.1875 14.6656 8.33437 15.4375 7.21875 15.4375C6.10313 15.4375 5.25 14.6656 5.25 13.6562C5.25 12.6469 6.10313 11.875 7.21875 11.875Z" fill="#7A7A7A"/>
</svg>
