<svg width="20" height="22" viewBox="0 0 20 22" fill="none" xmlns="http://www.w3.org/2000/svg">
<path d="M16.1086 10.552H3.89141V9.55655H16.1086V10.552ZM16.1086 18.2172H3.89141V17.2217H16.1086V18.2172ZM16.1086 14.3348H3.89141V13.3394H16.1086V14.3348ZM0 0H20V22H0V0ZM19.095 0.995479H0.90498V21.0045H19.095V0.995479ZM20 6.76923H0V0H20V6.76923ZM0.90498 5.77375H19.095V0.995479H0.90498V5.77375ZM4.79639 3.88236H3.07695V2.88686H4.79639V3.88236ZM8.23529 3.88236H6.51582V2.88686H8.23529V3.88236ZM11.7647 3.88236H10.0453V2.88686H11.7647V3.88236Z" fill="#7A7A7A"/>
</svg>
