<svg width="18" height="19" viewBox="0 0 18 19" fill="none" xmlns="http://www.w3.org/2000/svg">
<path d="M17.8152 13.528C17.2288 12.5934 16.5299 10.8249 16.5299 7.70755V7.07153C16.5299 3.20069 13.1778 0.0285322 9.05749 0.000179147C9.03821 8.95242e-05 9.01912 0 8.99993 0C7.0005 0.00247516 5.08402 0.740358 3.67206 2.05133C2.26011 3.36231 1.46833 5.13899 1.47089 6.99056V7.70755C1.47089 10.8248 0.771604 12.5931 0.184879 13.5278C0.0647485 13.7183 0.000982518 13.9347 1.12636e-05 14.1553C-0.000959991 14.3759 0.0608977 14.5929 0.179346 14.7843C0.297795 14.9757 0.468648 15.1348 0.674675 15.2455C0.880703 15.3563 1.11462 15.4148 1.35284 15.4151H5.3224V15.5943C5.3224 16.4976 5.70987 17.3638 6.39955 18.0025C7.08924 18.6412 8.02466 19 9.00002 19C9.97539 19 10.9108 18.6412 11.6005 18.0025C12.2902 17.3638 12.6776 16.4976 12.6776 15.5943V15.4151H16.6472C16.8854 15.4148 17.1193 15.3563 17.3253 15.2456C17.5313 15.1349 17.7022 14.9758 17.8206 14.7844C17.9391 14.5931 18.0009 14.3761 18 14.1556C17.999 13.935 17.9353 13.7185 17.8152 13.528ZM11.5163 15.5943C11.5163 16.2123 11.2512 16.805 10.7793 17.242C10.3074 17.679 9.66738 17.9245 9.00002 17.9245C8.33267 17.9245 7.69265 17.679 7.22075 17.242C6.74886 16.805 6.48376 16.2123 6.48376 15.5943V15.4151H11.5163V15.5943ZM16.8119 14.2512C16.7958 14.2785 16.7719 14.3011 16.7429 14.3167C16.7138 14.3323 16.6808 14.3402 16.6472 14.3396H1.35284C1.31928 14.3402 1.28618 14.3323 1.25713 14.3167C1.22808 14.3011 1.20418 14.2785 1.18802 14.2512C1.17011 14.2235 1.16074 14.1919 1.1609 14.1596C1.16107 14.1273 1.17077 14.0957 1.18896 14.0682C1.84732 13.0194 2.63224 11.0644 2.63224 7.70755V6.99057C2.62969 5.42419 3.29915 3.92102 4.49337 2.81173C5.68759 1.70244 7.30875 1.07789 9.00021 1.07547C9.01628 1.07547 9.03272 1.07556 9.04879 1.07565C12.5335 1.09963 15.3686 3.78936 15.3686 7.07153V7.70755C15.3686 11.0644 16.153 13.0194 16.8111 14.0683C16.8292 14.0958 16.8389 14.1274 16.8391 14.1597C16.8392 14.1919 16.8298 14.2236 16.8119 14.2512Z" fill="#7A7A7A"/>
</svg>
