<svg width="19" height="20" viewBox="0 0 19 20" fill="none" xmlns="http://www.w3.org/2000/svg">
<path d="M17.1304 4.8183L11.6638 0.787832C10.1738 -0.312296 7.8866 -0.252289 6.45356 0.917846L1.6988 4.8283C0.749751 5.60839 0 7.20857 0 8.46867V15.3695C0 17.9198 1.96454 20 4.38462 20H14.6154C17.0355 20 19 17.9298 19 15.3795V8.59868C19 7.24858 18.1743 5.58839 17.1304 4.8183ZM10.2118 15.9995C10.2118 16.4096 9.8891 16.7496 9.49999 16.7496C9.11088 16.7496 8.7882 16.4096 8.7882 15.9995V12.9992C8.7882 12.5891 9.11088 12.2491 9.49999 12.2491C9.8891 12.2491 10.2118 12.5891 10.2118 12.9992V15.9995Z" fill="#4B6EFA"/>
</svg>
