<svg width="53" height="52" viewBox="0 0 53 52" fill="none" xmlns="http://www.w3.org/2000/svg">
<rect x="0.5" y="0.5" width="52" height="51" rx="25.5" fill="#F7FAFC"/>
<path d="M31.9297 13.52C35.9317 13.52 38.16 15.7415 38.16 19.5479V32.4397C38.16 36.3085 35.9317 38.48 31.9297 38.48H21.0716C17.1332 38.48 14.84 36.3085 14.84 32.4397V19.5479C14.84 15.7415 17.1332 13.52 21.0716 13.52H31.9297ZM21.4214 30.6675C21.0328 30.6301 20.6571 30.8048 20.4498 31.1293C20.2425 31.4413 20.2425 31.8531 20.4498 32.1776C20.6571 32.4896 21.0328 32.6768 21.4214 32.6269H31.5786C32.0955 32.577 32.4855 32.1514 32.4855 31.6535C32.4855 31.1418 32.0955 30.7175 31.5786 30.6675H21.4214ZM31.5786 24.9754H21.4214C20.8631 24.9754 20.4109 25.4135 20.4109 25.9501C20.4109 26.4867 20.8631 26.9235 21.4214 26.9235H31.5786C32.1357 26.9235 32.5891 26.4867 32.5891 25.9501C32.5891 25.4135 32.1357 24.9754 31.5786 24.9754ZM25.2939 19.3232H21.4214V19.3357C20.8631 19.3357 20.4109 19.7725 20.4109 20.3091C20.4109 20.8458 20.8631 21.2826 21.4214 21.2826H25.2939C25.8523 21.2826 26.3057 20.8458 26.3057 20.2954C26.3057 19.76 25.8523 19.3232 25.2939 19.3232Z" fill="#4B6EFA"/>
<rect x="0.5" y="0.5" width="52" height="51" rx="25.5" stroke="#4B6EFA"/>
</svg>
