<svg width="23" height="25" viewBox="0 0 23 25" fill="none" xmlns="http://www.w3.org/2000/svg">
<path d="M15.1346 25H14.9887C10.0069 25 7.60575 22.87 7.1906 18.0988C7.14572 17.5998 7.48233 17.1495 7.95358 17.1008C8.40239 17.0521 8.82876 17.4294 8.87365 17.9284C9.19903 21.7502 10.8596 23.1743 14.9999 23.1743H15.1458C19.7125 23.1743 21.3282 21.4216 21.3282 16.4679V8.53212C21.3282 3.57838 19.7125 1.8257 15.1458 1.8257H14.9999C10.8372 1.8257 9.17659 3.2741 8.87365 7.16893C8.81754 7.66796 8.42483 8.04527 7.95358 7.99658C7.48233 7.96007 7.14572 7.50973 7.17938 7.0107C7.56087 2.1665 9.97324 0 14.9887 0H15.1346C20.6437 0 23 2.55599 23 8.53212V16.4679C23 22.444 20.6437 25 15.1346 25Z" fill="#F80A0A"/>
<path d="M14.8637 13.4129H2.09506C1.63503 13.4129 1.25354 12.999 1.25354 12.5C1.25354 12.001 1.63503 11.5872 2.09506 11.5872H14.8637C15.3238 11.5872 15.7052 12.001 15.7052 12.5C15.7052 12.999 15.3238 13.4129 14.8637 13.4129Z" fill="#F80A0A"/>
<path d="M4.59752 17.4904C4.38434 17.4904 4.17115 17.4052 4.00284 17.2227L0.244042 13.1452C-0.0813472 12.7923 -0.0813472 12.2081 0.244042 11.8551L4.00284 7.77767C4.32823 7.4247 4.86681 7.4247 5.1922 7.77767C5.51759 8.13064 5.51759 8.71486 5.1922 9.06783L2.02807 12.5002L5.1922 15.9325C5.51759 16.2855 5.51759 16.8697 5.1922 17.2227C5.03511 17.4052 4.81071 17.4904 4.59752 17.4904Z" fill="#F80A0A"/>
</svg>
