<svg width="15" height="22" viewBox="0 0 15 22" fill="none" xmlns="http://www.w3.org/2000/svg">
<path fill-rule="evenodd" clip-rule="evenodd" d="M0 2.7043C0 1.98707 0.26084 1.29922 0.725139 0.792071C1.18944 0.284916 1.81916 0 2.47578 0L12.3789 0C13.0355 0 13.6652 0.284916 14.1295 0.792071C14.5938 1.29922 14.8547 1.98707 14.8547 2.7043V20.9583C14.8546 21.0806 14.8242 21.2006 14.7666 21.3055C14.7091 21.4104 14.6266 21.4963 14.5279 21.554C14.4292 21.6117 14.318 21.6391 14.2062 21.6333C14.0943 21.6274 13.986 21.5886 13.8928 21.5208L7.42734 17.7145L0.96184 21.5208C0.868634 21.5886 0.760349 21.6274 0.64852 21.6333C0.53669 21.6391 0.425504 21.6117 0.326802 21.554C0.228101 21.4963 0.145581 21.4104 0.0880314 21.3055C0.0304818 21.2006 5.78347e-05 21.0806 0 20.9583V2.7043ZM2.47578 1.35215C2.14747 1.35215 1.83261 1.49461 1.60046 1.74818C1.36831 2.00176 1.23789 2.34569 1.23789 2.7043V19.6954L7.08444 16.3394C7.18602 16.2655 7.30532 16.2261 7.42734 16.2261C7.54936 16.2261 7.66865 16.2655 7.77023 16.3394L13.6168 19.6954V2.7043C13.6168 2.34569 13.4864 2.00176 13.2542 1.74818C13.0221 1.49461 12.7072 1.35215 12.3789 1.35215H2.47578Z" fill="#7A7A7A"/>
</svg>
