<svg width="21" height="20" viewBox="0 0 21 20" fill="none" xmlns="http://www.w3.org/2000/svg">
<path d="M16.5119 14.7692L20.8357 19.0516C21.0548 19.2686 21.0548 19.6203 20.8357 19.8373C20.6166 20.0542 20.2615 20.0542 20.0424 19.8373L15.7186 15.5549C14.1363 16.9383 12.0578 17.7778 9.78126 17.7778C4.82451 17.7778 0.806274 13.7981 0.806274 8.88889C0.806274 3.97969 4.82451 0 9.78126 0C14.738 0 18.7563 3.97969 18.7563 8.88889C18.7563 11.1436 17.9087 13.2022 16.5119 14.7692ZM9.78126 16.6667C14.1184 16.6667 17.6344 13.1844 17.6344 8.88889C17.6344 4.59334 14.1184 1.11111 9.78126 1.11111C5.44411 1.11111 1.92815 4.59334 1.92815 8.88889C1.92815 13.1844 5.44411 16.6667 9.78126 16.6667Z" fill="#252525"/>
</svg>
