<svg width="53" height="52" viewBox="0 0 53 52" fill="none" xmlns="http://www.w3.org/2000/svg">
<rect x="0.5" y="0.5" width="52" height="51" rx="25.5" fill="#F7FAFC"/>
<path d="M32.3333 36.4H21.6667C20.6058 36.4 19.5884 35.9891 18.8382 35.2577C18.0881 34.5263 17.6667 33.5343 17.6667 32.5V19.5C17.6667 19.1552 17.5262 18.8246 17.2761 18.5808C17.0261 18.337 16.687 18.2 16.3333 18.2C15.9797 18.2 15.6406 18.337 15.3905 18.5808C15.1405 18.8246 15 19.1552 15 19.5V32.5C15 34.2239 15.7024 35.8772 16.9526 37.0962C18.2029 38.3152 19.8986 39 21.6667 39H32.3333C32.687 39 33.0261 38.863 33.2761 38.6192C33.5262 38.3754 33.6667 38.0448 33.6667 37.7C33.6667 37.3552 33.5262 37.0246 33.2761 36.7808C33.0261 36.537 32.687 36.4 32.3333 36.4ZM24.3333 27.3C24.3333 27.6448 24.4738 27.9754 24.7239 28.2192C24.9739 28.463 25.313 28.6 25.6667 28.6H32.3333C32.687 28.6 33.0261 28.463 33.2761 28.2192C33.5262 27.9754 33.6667 27.6448 33.6667 27.3C33.6667 26.9552 33.5262 26.6246 33.2761 26.3808C33.0261 26.137 32.687 26 32.3333 26H25.6667C25.313 26 24.9739 26.137 24.7239 26.3808C24.4738 26.6246 24.3333 26.9552 24.3333 27.3ZM39 22.022C38.9861 21.9026 38.9593 21.7849 38.92 21.671V21.554C38.8559 21.4203 38.7704 21.2975 38.6667 21.19L30.6667 13.39C30.5564 13.2889 30.4304 13.2055 30.2933 13.143C30.2535 13.1375 30.2131 13.1375 30.1733 13.143C30.0379 13.0673 29.8883 13.0186 29.7333 13H24.3333C23.2725 13 22.2551 13.4109 21.5049 14.1423C20.7548 14.8737 20.3333 15.8657 20.3333 16.9V29.9C20.3333 30.9343 20.7548 31.9263 21.5049 32.6577C22.2551 33.3891 23.2725 33.8 24.3333 33.8H35C36.0609 33.8 37.0783 33.3891 37.8284 32.6577C38.5786 31.9263 39 30.9343 39 29.9V22.1C39 22.1 39 22.1 39 22.022ZM31 17.433L34.4533 20.8H32.3333C31.9797 20.8 31.6406 20.663 31.3905 20.4192C31.1405 20.1754 31 19.8448 31 19.5V17.433ZM36.3333 29.9C36.3333 30.2448 36.1929 30.5754 35.9428 30.8192C35.6928 31.063 35.3536 31.2 35 31.2H24.3333C23.9797 31.2 23.6406 31.063 23.3905 30.8192C23.1405 30.5754 23 30.2448 23 29.9V16.9C23 16.5552 23.1405 16.2246 23.3905 15.9808C23.6406 15.737 23.9797 15.6 24.3333 15.6H28.3333V19.5C28.3369 19.9435 28.4181 20.3831 28.5733 20.8H25.6667C25.313 20.8 24.9739 20.937 24.7239 21.1808C24.4738 21.4246 24.3333 21.7552 24.3333 22.1C24.3333 22.4448 24.4738 22.7754 24.7239 23.0192C24.9739 23.263 25.313 23.4 25.6667 23.4H36.3333V29.9Z" fill="#4B6EFA"/>
<rect x="0.5" y="0.5" width="52" height="51" rx="25.5" stroke="#4B6EFA"/>
</svg>
