<svg width="53" height="52" viewBox="0 0 53 52" fill="none" xmlns="http://www.w3.org/2000/svg">
<rect x="0.5" y="0.5" width="52" height="51" rx="25.5" fill="#F7FAFC"/>
<path d="M21.0255 25.5298C23.9353 25.5298 26.2904 23.1747 26.2904 20.2649C26.2904 17.3551 23.9353 15 21.0255 15C18.1157 15 15.7606 17.3551 15.7606 20.2649C15.7606 23.1747 18.1157 25.5298 21.0255 25.5298ZM24.6357 27.034H24.2456C23.2678 27.5041 22.1819 27.7862 21.0255 27.7862C19.8691 27.7862 18.7879 27.5041 17.8055 27.034H17.4153C14.4256 27.034 12 29.4596 12 32.4494V33.8032C12 35.0489 13.0107 36.0596 14.2564 36.0596H27.7947C29.0404 36.0596 30.0511 35.0489 30.0511 33.8032V32.4494C30.0511 29.4596 27.6254 27.034 24.6357 27.034ZM34.5638 25.5298C37.0552 25.5298 39.0766 23.5084 39.0766 21.017C39.0766 18.5256 37.0552 16.5043 34.5638 16.5043C32.0724 16.5043 30.0511 18.5256 30.0511 21.017C30.0511 23.5084 32.0724 25.5298 34.5638 25.5298ZM36.8202 27.034H36.6416C35.9882 27.2597 35.2971 27.4101 34.5638 27.4101C33.8305 27.4101 33.1395 27.2597 32.4861 27.034H32.3074C31.3485 27.034 30.4647 27.3114 29.6891 27.758C30.8361 28.9943 31.5553 30.6348 31.5553 32.4494V34.2545C31.5553 34.3579 31.5318 34.4566 31.5271 34.5553H39.8287C41.0744 34.5553 42.0851 33.5446 42.0851 32.2989C42.0851 29.3891 39.73 27.034 36.8202 27.034Z" fill="#4B6EFA"/>
<rect x="0.5" y="0.5" width="52" height="51" rx="25.5" stroke="#4B6EFA"/>
</svg>
