<svg width="27" height="18" viewBox="0 0 27 18" fill="none" xmlns="http://www.w3.org/2000/svg">
<path d="M23.1538 10.0946H23.9976V15.7277H23.1538V10.0946Z" fill="#7A7A7A"/>
<path d="M3.84546 15.7276H3.00171V2.91951C3.00171 2.30723 3.49973 1.80908 4.11187 1.80908H14.1192V2.64984H4.11208C3.96527 2.64984 3.84567 2.7707 3.84567 2.91951V15.7276H3.84546Z" fill="#7A7A7A"/>
<path d="M17.1526 11.1976V9.14345H16.3196C15.6988 9.14345 15.1936 8.58876 15.1936 7.90712V1.23718C15.1936 0.5549 15.6988 0 16.3196 0H24.5038C25.1254 0 25.6318 0.5549 25.6318 1.23718V7.90712C25.6318 8.58876 25.1256 9.14345 24.5038 9.14345H19.571L17.1526 11.1976ZM16.3196 0.840968C16.1667 0.840968 16.0374 1.02236 16.0374 1.23739V7.90712C16.0374 8.12172 16.1667 8.3027 16.3196 8.3027H17.9963V9.37614L19.2598 8.3027H24.5035C24.6575 8.3027 24.7879 8.12172 24.7879 7.90712V1.23718C24.7879 1.02236 24.6577 0.840758 24.5035 0.840758L16.3196 0.840968Z" fill="#7A7A7A"/>
<path d="M18.7275 7.07077V1.61572L23.4411 4.34377L18.7275 7.07077ZM19.5713 3.07633V5.61058L21.761 4.34377L19.5713 3.07633Z" fill="#7A7A7A"/>
<path d="M5.58081 15.4151H4.73706V14.4499C4.73706 13.5532 5.5363 12.8239 6.51843 12.8239H12.484C13.4661 12.8239 14.2651 13.5534 14.2651 14.4499V15.1567H13.4214V14.4499C13.4214 14.0167 13.0007 13.6646 12.484 13.6646H6.51822C6.00121 13.6646 5.5806 14.0169 5.5806 14.4499V15.4151H5.58081Z" fill="#7A7A7A"/>
<path d="M7.91016 12.1564H8.75391V13.2565H7.91016V12.1564Z" fill="#7A7A7A"/>
<path d="M10.1946 12.1564H11.0383V13.2565H10.1946V12.1564Z" fill="#7A7A7A"/>
<path d="M9.46259 12.4806C7.64874 12.4806 6.33228 11.2704 6.33228 9.60316V9.11699H7.17603V9.60316C7.17603 10.8025 8.11638 11.6399 9.46259 11.6399C10.809 11.6399 11.7492 10.8025 11.7492 9.60316V6.99744H12.5929V9.60294C12.5931 11.2704 11.2764 12.4806 9.46259 12.4806Z" fill="#7A7A7A"/>
<path d="M7.18865 11.2379L5.06177 8.66642V6.39469C5.06177 5.56066 5.73993 4.88217 6.57356 4.88217H6.8463C7.19181 4.47966 7.69448 4.24529 8.23216 4.24529L13.7669 4.24487V5.81835C13.7669 6.82726 12.9466 7.64805 11.9385 7.64805H7.53353C7.34327 7.64805 7.18844 7.80422 7.18844 7.99634V11.2379H7.18865ZM5.90552 8.3648L6.3449 8.89595V7.99634C6.3449 7.34054 6.87815 6.80729 7.53374 6.80729H11.9385C12.4813 6.80729 12.923 6.36358 12.923 5.81835V5.08563H8.23195C7.90056 5.08605 7.59281 5.25315 7.40908 5.53291L7.28421 5.72293H6.57335C6.20505 5.72293 5.90531 6.02434 5.90531 6.39469L5.90552 8.3648Z" fill="#7A7A7A"/>
<path d="M25.0096 17.9999H1.98998C1.20741 17.9999 0.272531 17.317 0.168539 17.239L0 17.1131V15.2433H27V17.1131L26.8315 17.2395C26.7273 17.317 25.792 17.9999 25.0096 17.9999ZM0.84375 16.6843C1.17577 16.9023 1.67126 17.1594 1.98998 17.1594H25.0098C25.3283 17.1594 25.8238 16.9023 26.1565 16.6843V16.0843H0.84375V16.6843Z" fill="#7A7A7A"/>
</svg>
